{
  "asset": {
    "version": "2.0",
    "generator": "gen_gema.py (infografia m\u00f3dulo 12)"
  },
  "scene": 0,
  "scenes": [
    {
      "name": "Gema",
      "nodes": [
        0
      ]
    }
  ],
  "nodes": [
    {
      "name": "Gema",
      "mesh": 0
    }
  ],
  "meshes": [
    {
      "name": "Gema",
      "primitives": [
        {
          "attributes": {
            "POSITION": 0,
            "NORMAL": 1
          },
          "indices": 2,
          "material": 0
        },
        {
          "attributes": {
            "POSITION": 3,
            "NORMAL": 4
          },
          "indices": 5,
          "material": 1
        }
      ]
    }
  ],
  "materials": [
    {
      "name": "Corona",
      "pbrMetallicRoughness": {
        "baseColorFactor": [
          0.55,
          0.85,
          0.95,
          1.0
        ],
        "metallicFactor": 0.3,
        "roughnessFactor": 0.15
      }
    },
    {
      "name": "Pabellon",
      "pbrMetallicRoughness": {
        "baseColorFactor": [
          0.15,
          0.35,
          0.7,
          1.0
        ],
        "metallicFactor": 0.4,
        "roughnessFactor": 0.25
      }
    }
  ],
  "buffers": [
    {
      "byteLength": 1872,
      "uri": "data:application/octet-stream;base64,"
    }
  ],
  "bufferViews": [
    {
      "buffer": 0,
      "byteOffset": 0,
      "byteLength": 648,
      "target": 34962
    },
    {
      "buffer": 0,
      "byteOffset": 648,
      "byteLength": 648,
      "target": 34962
    },
    {
      "buffer": 0,
      "byteOffset": 1296,
      "byteLength": 108,
      "target": 34963
    },
    {
      "buffer": 0,
      "byteOffset": 1404,
      "byteLength": 216,
      "target": 34962
    },
    {
      "buffer": 0,
      "byteOffset": 1620,
      "byteLength": 216,
      "target": 34962
    },
    {
      "buffer": 0,
      "byteOffset": 1836,
      "byteLength": 36,
      "target": 34963
    }
  ],
  "accessors": [
    {
      "bufferView": 0,
      "componentType": 5126,
      "count": 54,
      "type": "VEC3",
      "min": [
        -0.78,
        0.2,
        -0.6754998149518622
      ],
      "max": [
        0.78,
        0.5,
        0.6754998149518622
      ]
    },
    {
      "bufferView": 1,
      "componentType": 5126,
      "count": 54,
      "type": "VEC3"
    },
    {
      "bufferView": 2,
      "componentType": 5123,
      "count": 54,
      "type": "SCALAR"
    },
    {
      "bufferView": 3,
      "componentType": 5126,
      "count": 18,
      "type": "VEC3",
      "min": [
        -0.78,
        -0.7,
        -0.6754998149518622
      ],
      "max": [
        0.78,
        0.2,
        0.6754998149518622
      ]
    },
    {
      "bufferView": 4,
      "componentType": 5126,
      "count": 18,
      "type": "VEC3"
    },
    {
      "bufferView": 5,
      "componentType": 5123,
      "count": 18,
      "type": "SCALAR"
    }
  ]
}